<svg width="156" height="58" viewBox="0 0 156 58" fill="none" xmlns="http://www.w3.org/2000/svg">
<path d="M155.263 27.78C153.133 27.78 148.263 26.62 148.263 23.12C148.263 19.62 151.913 18.93 151.913 18.93L147.193 12.24H123.173L118.453 18.93C118.453 18.93 122.103 19.63 122.103 23.12C122.103 26.61 117.233 27.78 115.103 27.78C115.103 27.78 112.363 48.15 135.173 57.99C157.983 48.15 155.243 27.78 155.243 27.78H155.263ZM152.683 38.93C149.943 46.83 144.063 52.83 135.193 56.76C126.283 52.81 120.393 46.78 117.663 38.83C116.133 34.36 116.083 30.52 116.163 28.84C118.983 28.53 123.233 26.97 123.233 23.12C123.233 20.6 121.683 19.12 120.223 18.37L123.763 13.35H146.613L150.153 18.37C148.693 19.11 147.143 20.59 147.143 23.12C147.143 26.97 151.393 28.52 154.213 28.84C154.293 30.54 154.243 34.43 152.683 38.93Z" fill="#BA9B6F"/>
<path d="M146.473 23.12C146.473 20.48 147.953 18.96 149.183 18.16L146.273 14.03H124.123L121.213 18.16C122.433 18.96 123.923 20.48 123.923 23.12C123.923 26.98 120.223 28.9 116.833 29.43C116.793 31.36 116.983 34.73 118.313 38.61C120.943 46.29 126.623 52.15 135.203 56.02C143.743 52.16 149.413 46.34 152.063 38.7C153.443 34.72 153.603 31.19 153.573 29.43C150.183 28.9 146.483 26.98 146.483 23.12H146.473ZM151.623 38.56C149.033 46.02 143.513 51.72 135.193 55.53C126.843 51.71 121.303 45.97 118.733 38.47C117.533 34.96 117.263 31.88 117.273 29.82C120.773 29.17 124.373 27.11 124.373 23.13C124.373 20.56 123.073 18.98 121.843 18.06L124.363 14.49H146.053L148.573 18.06C147.343 18.98 146.043 20.56 146.043 23.13C146.043 27.11 149.643 29.17 153.133 29.82C153.133 31.64 152.913 34.91 151.643 38.57L151.623 38.56Z" fill="#BA9B6F"/>
<path d="M135.193 0L134.753 0.74C134.753 0.74 135.103 0.859999 135.073 1.14C135.043 1.42 134.583 1.56 134.383 1.14L133.683 1.64L134.383 2.1C134.383 2.1 134.473 1.77 134.773 1.82C134.903 1.84 134.973 2.01 135.003 2.19C134.733 2.25 134.273 2.46 134.273 3.18C134.273 3.79 134.863 3.99 134.863 3.99C134.863 3.99 135.073 7.91 134.003 8.01C132.933 8.11 132.403 7.04 132.543 6.05C132.723 4.76 134.363 4.02 134.363 4.02C134.363 4.02 132.403 4.35 131.973 5.85C131.543 7.34 132.113 8.31 130.903 8.37C129.693 8.44 129.943 4.98 132.543 4.32C132.543 4.32 128.743 4.91 129.283 7.85C129.353 8.23 129.513 8.59 129.693 8.94C129.803 9.15 129.933 9.48 129.933 9.89H140.433C140.433 9.47 140.563 9.14 140.673 8.94C140.853 8.59 141.013 8.23 141.083 7.85C141.623 4.91 137.823 4.32 137.823 4.32C140.433 4.98 140.683 8.44 139.463 8.37C138.253 8.3 138.823 7.34 138.393 5.85C137.963 4.36 136.003 4.02 136.003 4.02C136.003 4.02 137.643 4.75 137.823 6.05C137.963 7.04 137.433 8.11 136.363 8.01C135.293 7.91 135.503 3.99 135.503 3.99C135.503 3.99 136.093 3.79 136.093 3.18C136.093 2.46 135.633 2.25 135.363 2.19C135.393 2.01 135.463 1.84 135.593 1.82C135.893 1.77 135.983 2.1 135.983 2.1L136.683 1.64L135.983 1.14C135.783 1.56 135.333 1.42 135.293 1.14C135.263 0.859999 135.613 0.74 135.613 0.74L135.173 0" fill="#BA9B6F"/>
<path d="M140.453 10.2001H129.933V11.1501H140.453V10.2001Z" fill="#BA9B6F"/>
<path d="M140.453 11.4301H129.933V11.6701H140.453V11.4301Z" fill="#BA9B6F"/>
<path d="M135.113 14.9501H124.503L122.363 17.9801C123.513 18.9501 124.733 20.5801 124.733 23.1401C124.733 27.2401 121.133 29.4501 117.633 30.2001C117.663 32.1501 117.943 35.0501 119.073 38.3401C121.583 45.6601 126.973 51.2801 135.113 55.0501V34.2701C135.023 34.2201 134.943 34.1801 134.863 34.1501C134.563 34.0301 134.113 33.9601 133.523 33.9601C132.983 33.9601 132.563 33.9901 132.273 34.0501C132.223 34.5101 132.193 35.0201 132.193 35.5901V37.9601C132.193 38.9601 132.303 40.2801 132.513 41.9201L135.113 42.2901V42.5001H126.193V42.3701L129.203 41.9201C129.333 41.0601 129.433 39.8501 129.513 38.2801C129.593 36.7201 129.633 35.5801 129.633 34.8601V30.9001C129.633 29.8801 129.603 28.7201 129.533 27.4101C129.463 26.1001 129.383 25.0701 129.273 24.3201L126.203 23.8701V23.7401H134.613C134.783 23.7401 134.963 23.7401 135.123 23.7501V24.1101C134.783 24.0501 134.433 24.0201 134.083 24.0201H133.453V24.1501C134.063 24.1601 134.613 24.2501 135.113 24.4001V24.7601C134.613 24.5701 134.123 24.4701 133.643 24.4701C133.163 24.4701 132.763 24.5001 132.483 24.5701C132.403 25.0701 132.333 25.7701 132.273 26.7001C132.213 27.6201 132.173 28.3901 132.173 29.0001V31.1001C132.173 31.8401 132.203 32.5301 132.253 33.1701C132.583 33.2201 133.063 33.2501 133.703 33.2501C134.223 33.2501 134.693 33.2001 135.123 33.1201V29.1901V14.9401L135.113 14.9501Z" fill="#BA9B6F"/>
<path d="M130.863 24.25H129.943V41.99H130.863V24.25Z" fill="#BA9B6F"/>
<path d="M135.703 42.49V42.36L135.113 42.28V42.49H135.703Z" fill="#BA9B6F"/>
<path d="M143.733 41.28C143.413 40.95 143.053 40.52 142.673 39.99C142.293 39.46 141.783 38.73 141.153 37.79C140.523 36.85 140.013 36.11 139.633 35.57C139.253 35.03 138.903 34.61 138.613 34.31C138.233 33.93 137.743 33.62 137.163 33.39V33.34C137.773 33.27 138.383 33.05 138.973 32.67C139.563 32.29 140.043 31.79 140.413 31.15C140.783 30.51 140.963 29.79 140.963 28.98C140.963 28.39 140.783 27.69 140.413 26.87C140.043 26.06 139.383 25.33 138.433 24.69C137.583 24.12 136.483 23.81 135.123 23.75V24.11C135.433 24.17 135.743 24.25 136.043 24.35C136.693 24.57 137.283 24.9 137.803 25.32C138.333 25.75 138.743 26.28 139.053 26.91C139.363 27.55 139.513 28.26 139.513 29.04C139.513 30.05 139.233 30.91 138.663 31.64C138.093 32.37 137.373 32.84 136.503 33.06L136.423 33.01C137.903 32.25 138.653 31.02 138.653 29.31C138.653 28.54 138.473 27.77 138.113 26.98C137.753 26.2 137.183 25.53 136.393 24.99C136.013 24.73 135.583 24.53 135.123 24.39V24.75C135.123 24.75 135.203 24.78 135.243 24.79C135.783 25.02 136.273 25.34 136.713 25.75C137.153 26.16 137.513 26.67 137.793 27.27C138.073 27.87 138.213 28.52 138.213 29.23C138.213 29.94 138.073 30.61 137.783 31.21C137.493 31.81 137.023 32.3 136.353 32.68C136.003 32.88 135.593 33.02 135.133 33.11V34.26C135.363 34.4 135.623 34.6 135.883 34.87C136.133 35.12 136.463 35.54 136.883 36.12C137.303 36.71 137.823 37.46 138.443 38.36C139.063 39.26 139.513 39.92 139.803 40.31C140.093 40.71 140.373 41.05 140.663 41.34C141.393 42.09 142.383 42.47 143.633 42.47H145.863V42.34C145.163 42.34 144.453 41.98 143.743 41.26L143.733 41.28ZM143.183 42.04C142.473 42.04 141.863 41.82 141.343 41.42C140.823 41.01 140.233 40.34 139.563 39.39L136.783 35.36C136.353 34.7 135.903 34.22 135.423 33.91L135.473 33.81C136.083 33.93 136.593 34.17 137.013 34.53C137.433 34.89 137.883 35.42 138.353 36.12L140.583 39.32C141.643 40.86 142.503 41.72 143.183 41.92V42.05V42.04Z" fill="#BA9B6F"/>
<path d="M91.7105 14.7389V32.421H92.6023V14.7389H91.7105ZM87.8505 14.395V14.2676H97.4814V14.395L94.3221 14.8408C94.2117 15.6646 94.1183 16.7772 94.0418 18.1785C93.9654 19.5714 93.9272 20.7901 93.9272 21.8347V27.3126C93.9272 28.629 93.9951 30.0006 94.131 31.4274C95.5833 31.886 97.0823 32.1153 98.628 32.1153C99.3753 32.1153 100.063 32.0728 100.692 31.9879C101.32 31.903 101.762 31.8223 102.017 31.7458L103.341 28.268H103.533L102.934 32.9179H87.8251V32.7905L90.8698 32.3446C90.9717 31.9369 91.0566 31.2108 91.1245 30.1662C91.201 29.1216 91.2604 28.043 91.3029 26.9304C91.3454 25.8178 91.3666 25.0323 91.3666 24.5736V21.3633C91.3666 20.6584 91.3496 19.8516 91.3156 18.9429C91.2817 18.0257 91.2392 17.2231 91.1882 16.5352C91.1458 15.8472 91.0863 15.2825 91.0099 14.8408L87.8505 14.395Z" fill="#BA9B6F"/>
<path d="M76.1432 16.5861L82.7548 32.4209H83.6084L76.5636 15.516L76.1432 16.5861ZM75.9393 17.6561C75.71 18.1063 75.4043 18.7645 75.0221 19.6307C74.6484 20.497 74.3087 21.3081 74.003 22.0639C73.6972 22.8198 73.3787 23.6266 73.0475 24.4844C72.7163 25.3337 72.4955 25.8942 72.3851 26.166C72.8862 26.2339 73.4679 26.2806 74.1304 26.3061C74.8013 26.3316 75.4383 26.3443 76.0412 26.3443C77.5275 26.3443 78.7462 26.2849 79.6974 26.166C79.3747 25.2063 78.8269 23.8432 78.054 22.0767C77.2812 20.3017 76.5763 18.8282 75.9393 17.6561ZM77.2897 14.0764L82.8058 27.2361C83.5192 28.9516 84.3515 30.6544 85.3027 32.3445L87.4174 32.7904V32.9178H78.4235V32.7904L81.8886 32.3445C81.7612 31.5037 81.5234 30.5907 81.1752 29.6056C80.8354 28.6119 80.4575 27.7499 80.0414 27.0195H72.0539C71.7141 27.8773 71.4381 28.5822 71.2258 29.1342C71.022 29.6863 70.8224 30.2595 70.6271 30.854C70.4402 31.4485 70.3171 31.9453 70.2576 32.3445L73.5953 32.7904V32.9178H66.4741V32.7904L68.8181 32.3445C69.3871 31.3593 69.9094 30.2723 70.385 29.0833L76.2833 14.0764H77.2897Z" fill="#BA9B6F"/>
<path d="M57.3145 32.421H58.1808V24.459L52.1169 14.7389H51.187L57.3145 24.5482V32.421ZM50.4481 14.8408L47.8748 14.395V14.2676H57.7859V14.395L53.9769 14.8408C54.5459 16.0978 55.3485 17.5628 56.3846 19.2359C57.4207 20.909 58.3464 22.2678 59.1617 23.3125C60.0535 22.3273 61.1066 20.9472 62.3211 19.1722C63.5356 17.3972 64.44 15.9534 65.0345 14.8408L61.3019 14.395V14.2676H68.7162V14.4204L66.525 14.8408C66.024 15.4353 65.5399 16.0468 65.0728 16.6753C64.6056 17.3038 64.0027 18.1446 63.2638 19.1977C62.5249 20.2508 61.9431 21.0958 61.5185 21.7328C61.0939 22.3613 60.4569 23.3252 59.6076 24.6246C59.5397 25.6692 59.5057 26.8327 59.5057 28.1152C59.5057 29.8647 59.6373 31.2745 59.9006 32.3446L63.06 32.7905V32.9179H53.4036V32.7905L56.4992 32.3446C56.6351 31.8095 56.7413 31.0792 56.8177 30.1534C56.9026 29.2277 56.9451 28.3572 56.9451 27.5419C56.9451 26.9304 56.9196 25.975 56.8687 24.6756C56.3761 23.7753 55.7476 22.7095 54.9833 21.478C54.2274 20.238 53.4461 19.0278 52.6392 17.8473C51.8324 16.6583 51.102 15.6562 50.4481 14.8408Z" fill="#BA9B6F"/>
<path d="M36.3585 14C38.1674 14 39.7344 14.3015 41.0593 14.9045C42.3841 15.5075 43.467 16.2973 44.3078 17.274C45.157 18.2507 45.777 19.291 46.1677 20.3951C46.5669 21.4907 46.7664 22.5438 46.7664 23.5544C46.7664 24.7095 46.5414 25.8433 46.0913 26.9558C45.6496 28.0684 44.9914 29.0875 44.1167 30.0132C43.2504 30.9305 42.1718 31.6651 40.8809 32.2171C39.5985 32.7692 38.1674 33.0452 36.5878 33.0452C34.3032 33.0452 32.3668 32.5526 30.7787 31.5674C29.1905 30.5738 28.0185 29.3466 27.2626 27.8858C26.5068 26.425 26.1288 24.9982 26.1288 23.6054C26.1288 22.3739 26.3666 21.1807 26.8422 20.0257C27.3263 18.8706 28.0227 17.8388 28.9315 16.93C29.8487 16.0128 30.9443 15.2952 32.2182 14.7771C33.4921 14.259 34.8722 14 36.3585 14ZM36.4349 14.8917C35.1185 14.8917 33.8998 15.2357 32.7787 15.9236C31.6662 16.6115 30.7787 17.6052 30.1162 18.9046C29.4623 20.204 29.1353 21.737 29.1353 23.5035C29.1353 25.4059 29.492 27.0153 30.2054 28.3317C30.9273 29.6396 31.8488 30.612 32.9698 31.249C34.0994 31.8774 35.2629 32.1917 36.4604 32.1917C37.4371 32.1917 38.3628 32.0048 39.2375 31.6311C40.1123 31.2574 40.8936 30.7139 41.5816 30.0005C42.2695 29.2786 42.8045 28.3954 43.1867 27.3507C43.5774 26.2976 43.7727 25.1256 43.7727 23.8347C43.7727 22.0682 43.5689 20.6584 43.1612 19.6053C42.7536 18.5522 42.1548 17.6307 41.365 16.8409C40.6941 16.1699 39.9297 15.6773 39.0719 15.3631C38.2226 15.0489 37.3436 14.8917 36.4349 14.8917ZM37.0846 14.3694V14.4968C37.9084 14.5563 38.7365 14.7516 39.5688 15.0828C40.4011 15.4056 41.1782 15.9151 41.9 16.6115C42.6304 17.2995 43.2164 18.2294 43.6581 19.4014C44.0997 20.5735 44.3205 21.9833 44.3205 23.6309C44.3205 24.7095 44.1889 25.7414 43.9256 26.7265C43.6708 27.7117 43.2547 28.6204 42.6771 29.4527C42.1081 30.285 41.3607 30.9729 40.435 31.5165C39.5093 32.06 38.401 32.3955 37.1101 32.5229V32.663C38.1972 32.6121 39.229 32.3785 40.2057 31.9624C41.1824 31.5462 42.0487 30.9517 42.8045 30.1789C43.5689 29.3975 44.1719 28.4463 44.6135 27.3253C45.0551 26.2042 45.2759 24.9558 45.2759 23.5799C45.2759 22.0767 45.0466 20.7518 44.588 19.6053C44.1294 18.4502 43.5052 17.4906 42.7154 16.7262C41.9255 15.9618 41.0465 15.3843 40.0783 14.9937C39.1186 14.603 38.1207 14.3949 37.0846 14.3694ZM35.8362 14.4968V14.3694C34.6472 14.3779 33.4879 14.6327 32.3583 15.1338C31.2288 15.6349 30.2351 16.3143 29.3774 17.1721C28.5196 18.0299 27.8486 19.0065 27.3646 20.1021C26.889 21.1977 26.6512 22.3485 26.6512 23.5544C26.6512 25.0322 27.0503 26.4717 27.8486 27.8731C28.6555 29.2659 29.768 30.3997 31.1863 31.2744C32.6046 32.1492 34.1631 32.6121 35.8616 32.663V32.5229C34.214 32.3785 32.7575 31.8647 31.4921 30.9814C30.2266 30.0982 29.2627 29.0026 28.6003 27.6947C27.9463 26.3868 27.6193 25.0322 27.6193 23.6309C27.6193 22.4759 27.8104 21.3675 28.1926 20.3059C28.5748 19.2443 29.1268 18.2974 29.8487 17.4651C30.5706 16.6328 31.4411 15.9576 32.4603 15.4395C33.4879 14.9215 34.6132 14.6072 35.8362 14.4968Z" fill="#BA9B6F"/>
<path d="M8.79071 25.3253V21.3888C8.79071 20.3782 8.75674 19.2231 8.68879 17.9237C8.62085 16.6158 8.53592 15.5882 8.43401 14.8408L5.37659 14.395V14.2676H13.7463C15.3344 14.2676 16.5999 14.5861 17.5426 15.223C18.4938 15.8515 19.152 16.5734 19.5172 17.3887C19.8824 18.1955 20.065 18.8919 20.065 19.4779C20.065 20.2848 19.8824 21.0066 19.5172 21.6436C19.152 22.2721 18.6721 22.7732 18.0776 23.1468C17.4916 23.5205 16.8929 23.7413 16.2814 23.8093V23.8602C16.8589 24.0895 17.3388 24.3953 17.7209 24.7775C18.0182 25.0747 18.3579 25.4951 18.7401 26.0387C19.1222 26.5737 19.6276 27.3083 20.256 28.2425C20.8845 29.1768 21.3898 29.9071 21.772 30.4337C22.1542 30.9603 22.5066 31.3891 22.8294 31.7204C23.5428 32.4338 24.2477 32.7905 24.9441 32.7905V32.9179H22.7275C21.4875 32.9179 20.5023 32.5442 19.7719 31.7968C19.4832 31.508 19.1944 31.1683 18.9057 30.7777C18.6254 30.3785 18.1753 29.7288 17.5553 28.8285C16.9438 27.9283 16.4258 27.1852 16.0011 26.5992C15.585 26.0132 15.2538 25.597 15.0075 25.3507C14.6423 24.9855 14.3068 24.7435 14.0011 24.6246C13.7038 24.4972 13.2622 24.4335 12.6762 24.4335C12.1411 24.4335 11.725 24.4632 11.4277 24.5227C11.3768 24.9813 11.3513 25.4909 11.3513 26.0514V28.4082C11.3513 29.4018 11.4575 30.714 11.6698 32.3446L14.8419 32.7905V32.9179H5.37659V32.7905L8.37031 32.3446C8.49771 31.4868 8.59962 30.2808 8.67605 28.7266C8.75249 27.1724 8.79071 26.0387 8.79071 25.3253ZM11.3258 19.5034V21.5927C11.3258 22.3315 11.3513 23.0194 11.4023 23.6564C11.7335 23.7074 12.2133 23.7328 12.8418 23.7328C13.9289 23.7328 14.8036 23.546 15.4661 23.1723C16.137 22.7986 16.6126 22.3145 16.8929 21.72C17.1816 21.1171 17.326 20.4589 17.326 19.7455C17.326 19.0406 17.1859 18.3909 16.9056 17.7964C16.6338 17.2019 16.2771 16.7008 15.8355 16.2931C15.4024 15.877 14.914 15.5585 14.3705 15.3377C13.8355 15.1084 13.3089 14.9937 12.7908 14.9937C12.2983 14.9937 11.9118 15.0277 11.6316 15.0956C11.5551 15.5882 11.4829 16.2931 11.415 17.2103C11.3555 18.1276 11.3258 18.8919 11.3258 19.5034ZM15.912 25.8221L18.6764 29.835C19.3388 30.7777 19.9291 31.4528 20.4471 31.8605C20.9652 32.2597 21.5767 32.4635 22.2816 32.472V32.3446C21.6106 32.1493 20.7486 31.2872 19.6955 29.7585L17.4789 26.5737C17.0033 25.8773 16.5574 25.3507 16.1413 24.994C15.7251 24.6373 15.2155 24.3995 14.6125 24.2806L14.5616 24.3825C15.0372 24.6883 15.4873 25.1681 15.912 25.8221ZM9.10919 14.7644V32.421H10.0264V14.7644H9.10919ZM12.5997 14.5478V14.6752C13.7633 14.7007 14.7357 14.9852 15.517 15.5288C16.3069 16.0638 16.8801 16.722 17.2368 17.5033C17.5935 18.2847 17.7719 19.0575 17.7719 19.8219C17.7719 21.5205 17.033 22.7477 15.5553 23.5035L15.6317 23.5545C16.498 23.3337 17.2114 22.8623 17.7719 22.1404C18.3409 21.4185 18.6254 20.5565 18.6254 19.5544C18.6254 18.773 18.4725 18.0681 18.1668 17.4397C17.8611 16.8027 17.4449 16.2719 16.9184 15.8472C16.4003 15.4226 15.8185 15.0999 15.1731 14.8791C14.5276 14.6582 13.8779 14.5478 13.224 14.5478H12.5997Z" fill="#BA9B6F"/>
<path d="M101.399 38.1575H105.479C106.134 38.1575 106.645 38.2182 107.014 38.3397C107.382 38.4573 107.686 38.6356 107.925 38.8747C108.125 39.0746 108.278 39.3215 108.383 39.6154C108.493 39.9055 108.548 40.2053 108.548 40.5149C108.548 40.9774 108.427 41.4065 108.184 41.8024C107.945 42.1943 107.606 42.5098 107.167 42.7489C106.732 42.9841 106.234 43.1016 105.673 43.1016C105.23 43.1016 104.829 43.0664 104.468 42.9958V42.937C104.55 42.9449 104.676 42.9488 104.844 42.9488C105.283 42.9488 105.689 42.8743 106.061 42.7254C106.438 42.5725 106.739 42.3374 106.967 42.0199C107.194 41.6985 107.308 41.2968 107.308 40.8147C107.308 40.2543 107.133 39.7271 106.784 39.2333C106.436 38.7395 105.92 38.4926 105.238 38.4926C104.909 38.4926 104.617 38.5239 104.362 38.5866C104.335 38.7434 104.305 39.1334 104.274 39.7565C104.243 40.3797 104.227 40.8167 104.227 41.0675V43.8718C104.227 43.9893 104.235 44.2559 104.251 44.6713C104.27 45.0828 104.29 45.4395 104.309 45.7413C104.329 46.043 104.358 46.2958 104.398 46.4996L105.867 46.7172L105.803 46.7877H101.399L101.423 46.7054L102.846 46.4996C102.889 46.1704 102.922 45.8216 102.946 45.4532C102.969 45.0848 102.989 44.6419 103.004 44.1246C103.024 43.6033 103.034 43.2153 103.034 42.9605V41.5496C103.034 41.0519 103.018 40.4953 102.987 39.88C102.955 39.2607 102.916 38.7787 102.869 38.4338L101.411 38.228L101.399 38.1575ZM103.192 38.3809V46.5467H103.604V38.3809H103.192ZM105.55 38.2986H105.338V38.3574C105.781 38.3809 106.167 38.5082 106.496 38.7395C106.829 38.9668 107.08 39.2627 107.249 39.6272C107.417 39.9917 107.502 40.3836 107.502 40.803C107.502 41.2811 107.4 41.677 107.196 41.9905C106.992 42.3041 106.749 42.5314 106.467 42.6725C106.185 42.8136 105.905 42.8978 105.626 42.9253V42.9958H105.732C105.952 42.9958 106.23 42.937 106.567 42.8194C106.908 42.6979 107.219 42.4667 107.502 42.1257C107.784 41.7848 107.925 41.3125 107.925 40.7089C107.925 40.3366 107.849 39.9643 107.696 39.5919C107.543 39.2196 107.286 38.9119 106.926 38.6689C106.569 38.422 106.11 38.2986 105.55 38.2986Z" fill="#BA9B6F"/>
<path d="M96.4846 46.6408V46.7172C96.9471 46.6898 97.3468 46.6153 97.6839 46.4938C98.021 46.3684 98.2992 46.1959 98.5187 45.9765C98.7421 45.7531 98.9087 45.4748 99.0184 45.1417C99.1282 44.8085 99.183 44.4225 99.183 43.9835V38.3985H98.7715V43.9718C98.7715 44.7556 98.5912 45.3749 98.2306 45.8295C97.8701 46.2841 97.2881 46.5546 96.4846 46.6408ZM95.7145 46.7172V46.6408C95.1619 46.6094 94.6778 46.4997 94.2624 46.3116C93.8509 46.1195 93.5275 45.8373 93.2924 45.465C93.0611 45.0887 92.9455 44.6302 92.9455 44.0893V38.3985H92.534V44.2951C92.534 45.0202 92.7868 45.5943 93.2924 46.0176C93.8019 46.437 94.6092 46.6702 95.7145 46.7172ZM92.3635 44.2951V41.0205C92.3635 40.2916 92.3165 39.4293 92.2224 38.4338L90.9937 38.2398V38.181H95.2794V38.2398L93.7274 38.4338C93.6882 38.7082 93.6569 39.0374 93.6333 39.4215C93.6098 39.8056 93.5883 40.2151 93.5687 40.6502C93.553 41.0852 93.5452 41.434 93.5452 41.6966V44.1128C93.5452 44.689 93.6608 45.1534 93.892 45.5061C94.1272 45.855 94.4348 46.1019 94.815 46.2469C95.1991 46.3919 95.6224 46.4644 96.0848 46.4644C96.8726 46.4644 97.4899 46.2645 97.9367 45.8648C98.3874 45.465 98.6128 44.8183 98.6128 43.9247V41.4086C98.6128 40.9618 98.5971 40.4346 98.5657 39.8271C98.5344 39.2157 98.4952 38.7513 98.4482 38.4338L96.902 38.2398V38.181H101.164V38.2398L99.9649 38.4338C99.9101 38.6886 99.8669 39.1138 99.8356 39.7095C99.8082 40.3014 99.7944 40.7991 99.7944 41.2028V44.0541C99.7944 44.4969 99.7415 44.8732 99.6357 45.1828C99.5299 45.4924 99.3653 45.7589 99.1419 45.9823C98.989 46.1352 98.8283 46.2645 98.6598 46.3703C98.4913 46.4762 98.2777 46.5683 98.019 46.6467C97.7603 46.725 97.4781 46.7819 97.1724 46.8171C96.8667 46.8524 96.4885 46.8701 96.0378 46.8701C95.301 46.8701 94.6602 46.7877 94.1154 46.6231C93.5706 46.4585 93.1415 46.1842 92.8279 45.8001C92.5183 45.416 92.3635 44.9143 92.3635 44.2951Z" fill="#BA9B6F"/>
<path d="M85.6086 38.0575C86.4434 38.0575 87.1666 38.1966 87.778 38.4749C88.3894 38.7532 88.8891 39.1177 89.2771 39.5684C89.669 40.0191 89.9551 40.4992 90.1354 41.0087C90.3196 41.5143 90.4117 42.0003 90.4117 42.4667C90.4117 42.9997 90.3078 43.5229 90.1001 44.0363C89.8963 44.5498 89.5926 45.0201 89.1889 45.4473C88.7891 45.8706 88.2914 46.2096 87.6957 46.4643C87.1038 46.7191 86.4434 46.8465 85.7145 46.8465C84.6602 46.8465 83.7666 46.6191 83.0337 46.1645C82.3008 45.706 81.7599 45.1396 81.4111 44.4655C81.0623 43.7914 80.8879 43.133 80.8879 42.4902C80.8879 41.9219 80.9976 41.3712 81.2171 40.8382C81.4405 40.3052 81.7619 39.829 82.1812 39.4096C82.6045 38.9864 83.1101 38.6552 83.698 38.4161C84.2859 38.177 84.9228 38.0575 85.6086 38.0575ZM85.6439 38.469C85.0364 38.469 84.474 38.6277 83.9567 38.9452C83.4432 39.2627 83.0337 39.7212 82.728 40.3209C82.4262 40.9205 82.2753 41.628 82.2753 42.4432C82.2753 43.3211 82.4399 44.0638 82.7691 44.6713C83.1023 45.2748 83.5275 45.7236 84.0449 46.0175C84.5661 46.3076 85.1031 46.4526 85.6557 46.4526C86.1064 46.4526 86.5336 46.3663 86.9373 46.1939C87.341 46.0215 87.7015 45.7706 88.019 45.4414C88.3365 45.1083 88.5834 44.7007 88.7597 44.2186C88.94 43.7326 89.0302 43.1917 89.0302 42.596C89.0302 41.7808 88.9361 41.1302 88.748 40.6442C88.5599 40.1582 88.2835 39.733 87.9191 39.3685C87.6094 39.0589 87.2567 38.8316 86.8608 38.6865C86.4689 38.5415 86.0633 38.469 85.6439 38.469ZM85.9437 38.228V38.2868C86.3239 38.3142 86.706 38.4044 87.0901 38.5572C87.4742 38.7061 87.8328 38.9413 88.166 39.2627C88.503 39.5801 88.7735 40.0093 88.9773 40.5502C89.1811 41.091 89.283 41.7416 89.283 42.5019C89.283 42.9997 89.2222 43.4759 89.1007 43.9305C88.9831 44.3852 88.7911 44.8045 88.5246 45.1886C88.262 45.5727 87.9171 45.8902 87.4899 46.141C87.0627 46.3918 86.5512 46.5466 85.9555 46.6054V46.6701C86.4572 46.6466 86.9334 46.5388 87.3841 46.3468C87.8348 46.1547 88.2346 45.8804 88.5834 45.5237C88.9361 45.1631 89.2144 44.7242 89.4182 44.2068C89.622 43.6895 89.7239 43.1134 89.7239 42.4784C89.7239 41.7847 89.6181 41.1733 89.4064 40.6442C89.1948 40.1112 88.9067 39.6683 88.5422 39.3156C88.1777 38.9628 87.7721 38.6963 87.3253 38.516C86.8824 38.3358 86.4219 38.2397 85.9437 38.228ZM85.3676 38.2868V38.228C84.8189 38.2319 84.2839 38.3495 83.7627 38.5807C83.2414 38.812 82.7828 39.1255 82.387 39.5213C81.9912 39.9172 81.6815 40.3679 81.4581 40.8735C81.2387 41.3791 81.1289 41.9101 81.1289 42.4667C81.1289 43.1486 81.3131 43.8129 81.6815 44.4596C82.0539 45.1024 82.5673 45.6256 83.2218 46.0293C83.8763 46.433 84.5955 46.6466 85.3794 46.6701V46.6054C84.619 46.5388 83.9469 46.3017 83.3629 45.8941C82.7789 45.4865 82.3341 44.9809 82.0284 44.3773C81.7266 43.7738 81.5757 43.1486 81.5757 42.5019C81.5757 41.9689 81.6639 41.4575 81.8403 40.9676C82.0166 40.4776 82.2714 40.0406 82.6045 39.6566C82.9377 39.2725 83.3394 38.9609 83.8097 38.7218C84.2839 38.4827 84.8032 38.3377 85.3676 38.2868Z" fill="#BA9B6F"/>
<path d="M72.8867 43.2839V41.4673C72.8867 41.0009 72.871 40.4679 72.8397 39.8683C72.8083 39.2647 72.7691 38.7905 72.7221 38.4456L71.3112 38.2398V38.181H75.1736C75.9065 38.181 76.4905 38.328 76.9255 38.6219C77.3645 38.912 77.6682 39.2451 77.8367 39.6214C78.0053 39.9937 78.0895 40.3151 78.0895 40.5855C78.0895 40.9578 78.0053 41.291 77.8367 41.5849C77.6682 41.8749 77.4468 42.1062 77.1724 42.2786C76.902 42.4511 76.6257 42.553 76.3435 42.5843V42.6078C76.61 42.7137 76.8315 42.8548 77.0078 43.0311C77.145 43.1683 77.3018 43.3623 77.4781 43.6131C77.6545 43.8601 77.8877 44.1991 78.1777 44.6302C78.4677 45.0613 78.7009 45.3984 78.8773 45.6414C79.0537 45.8844 79.2163 46.0823 79.3653 46.2351C79.6945 46.5644 80.0198 46.729 80.3412 46.729V46.7877H79.3182C78.746 46.7877 78.2914 46.6153 77.9543 46.2704C77.8211 46.1372 77.6878 45.9804 77.5546 45.8001C77.4252 45.6159 77.2175 45.3161 76.9314 44.9006C76.6492 44.4852 76.4101 44.1422 76.2142 43.8718C76.0221 43.6014 75.8693 43.4093 75.7556 43.2957C75.5871 43.1272 75.4323 43.0155 75.2912 42.9606C75.154 42.9018 74.9502 42.8724 74.6798 42.8724C74.4329 42.8724 74.2408 42.8861 74.1036 42.9135C74.0801 43.1252 74.0684 43.3603 74.0684 43.619V44.7066C74.0684 45.1652 74.1174 45.7707 74.2153 46.5232L75.6792 46.729V46.7877H71.3112V46.729L72.6927 46.5232C72.7515 46.1274 72.7985 45.5708 72.8338 44.8536C72.8691 44.1364 72.8867 43.6131 72.8867 43.2839ZM74.0566 40.5973V41.5614C74.0566 41.9024 74.0684 42.2198 74.0919 42.5138C74.2447 42.5373 74.4662 42.5491 74.7562 42.5491C75.2579 42.5491 75.6615 42.4628 75.9672 42.2904C76.2769 42.1179 76.4964 41.8945 76.6257 41.6202C76.7589 41.3419 76.8256 41.0382 76.8256 40.709C76.8256 40.3837 76.7609 40.0838 76.6316 39.8095C76.5062 39.5351 76.3415 39.3039 76.1377 39.1158C75.9379 38.9237 75.7125 38.7768 75.4617 38.6749C75.2147 38.569 74.9718 38.5161 74.7327 38.5161C74.5054 38.5161 74.327 38.5318 74.1977 38.5632C74.1624 38.7905 74.1291 39.1158 74.0978 39.5391C74.0703 39.9623 74.0566 40.3151 74.0566 40.5973ZM76.173 43.5132L77.4487 45.3651C77.7544 45.8001 78.0268 46.1117 78.2659 46.2998C78.505 46.484 78.7872 46.5781 79.1125 46.582V46.5232C78.8028 46.4331 78.405 46.0352 77.919 45.3298L76.8961 43.8601C76.6766 43.5387 76.4709 43.2957 76.2788 43.1311C76.0868 42.9665 75.8516 42.8567 75.5734 42.8019L75.5499 42.8489C75.7693 42.99 75.977 43.2114 76.173 43.5132ZM73.0337 38.4103V46.5585H73.457V38.4103H73.0337ZM74.6445 38.3104V38.3692C75.1814 38.3809 75.6302 38.5122 75.9908 38.763C76.3553 39.01 76.6198 39.3137 76.7844 39.6743C76.949 40.0348 77.0313 40.3915 77.0313 40.7442C77.0313 41.5281 76.6904 42.0944 76.0084 42.4432L76.0437 42.4668C76.4434 42.3649 76.7727 42.1473 77.0313 41.8142C77.2939 41.4811 77.4252 41.0833 77.4252 40.6208C77.4252 40.2602 77.3547 39.9349 77.2136 39.6449C77.0725 39.3509 76.8804 39.106 76.6374 38.91C76.3984 38.7141 76.1299 38.5651 75.832 38.4632C75.5342 38.3613 75.2343 38.3104 74.9326 38.3104H74.6445Z" fill="#BA9B6F"/>
<path d="M68.9596 43.7189V46.0176L69.3535 45.8706V43.7189H68.9596ZM71.076 43.5484L70.1354 43.766C70.0844 44.0521 70.0433 44.4185 70.0119 44.8653C69.9806 45.3121 69.9669 45.7119 69.9708 46.0646C69.5201 46.241 69.1516 46.3762 68.8655 46.4702C68.5833 46.5643 68.2443 46.6486 67.8485 46.723C67.4566 46.7975 67.0274 46.8347 66.561 46.8347C65.7889 46.8347 65.1089 46.7132 64.521 46.4702C63.9331 46.2273 63.4471 45.902 63.0631 45.4944C62.6829 45.0828 62.4007 44.6262 62.2165 44.1246C62.0323 43.6229 61.9402 43.1173 61.9402 42.6078C61.9402 42.0082 62.0421 41.4359 62.2459 40.8912C62.4497 40.3425 62.7495 39.8545 63.1454 39.4273C63.5412 38.9962 64.0252 38.6591 64.5975 38.4161C65.1736 38.1692 65.8242 38.0458 66.5492 38.0458C66.6629 38.0458 66.7511 38.0477 66.8138 38.0517C66.8804 38.0556 66.9627 38.0595 67.0607 38.0634C67.1587 38.0673 67.29 38.0732 67.4546 38.081C67.9327 38.1124 68.3854 38.1281 68.8126 38.1281C69.2085 38.1281 69.5298 38.1163 69.7768 38.0928L69.8591 40.0564H69.7768L69.4005 38.7454C69.2516 38.7062 69.0654 38.667 68.842 38.6278C68.6186 38.5847 68.3658 38.5474 68.0836 38.5161C67.8054 38.4847 67.5036 38.4691 67.1783 38.4691C66.4924 38.4691 65.8967 38.5808 65.3911 38.8042C64.8855 39.0236 64.4779 39.3215 64.1683 39.6977C63.8626 40.0701 63.6392 40.4836 63.4981 40.9382C63.357 41.3928 63.2865 41.8573 63.2865 42.3315C63.2865 42.8684 63.3844 43.376 63.5804 43.8541C63.7803 44.3323 64.0605 44.7556 64.4211 45.124C64.7856 45.4924 65.2089 45.7805 65.6909 45.9882C66.173 46.192 66.6845 46.2939 67.2253 46.2939C67.3664 46.2939 67.5114 46.286 67.6604 46.2704C67.8093 46.2547 67.9621 46.2351 68.1189 46.2116C68.2796 46.1841 68.4618 46.1547 68.6656 46.1234C68.748 45.7746 68.7891 45.4062 68.7891 45.0182C68.7891 44.4812 68.748 44.0599 68.6656 43.7542L67.1489 43.5484V43.4779H71.076V43.5484ZM67.2606 38.2633V38.2163C66.998 38.1927 66.7609 38.181 66.5492 38.181C65.9143 38.181 65.3284 38.2907 64.7915 38.5102C64.2584 38.7297 63.796 39.0393 63.404 39.4391C63.016 39.8349 62.7142 40.3072 62.4987 40.8559C62.287 41.4007 62.1812 41.9846 62.1812 42.6078C62.1812 43.3368 62.3635 44.0148 62.728 44.6419C63.0925 45.2651 63.6157 45.7609 64.2976 46.1293C64.9796 46.4977 65.783 46.6819 66.708 46.6819C66.8804 46.6819 67.1156 46.6643 67.4134 46.629V46.5819C66.5512 46.5859 65.8105 46.4683 65.1912 46.2292C64.572 45.9901 64.0723 45.6648 63.6921 45.2533C63.3119 44.8418 63.0356 44.3911 62.8632 43.9012C62.6946 43.4113 62.6104 42.9213 62.6104 42.4314C62.6104 41.8279 62.7064 41.2713 62.8984 40.7618C63.0944 40.2523 63.3786 39.8114 63.7509 39.4391C64.1232 39.0667 64.5896 38.7787 65.1501 38.5749C65.7144 38.3672 66.3494 38.2633 67.0548 38.2633H67.2606Z" fill="#BA9B6F"/>
<path d="M51.6462 46.5585H52.046V42.8842L49.2476 38.3985H48.8184L51.6462 42.9253V46.5585ZM48.4775 38.4456L47.2899 38.2398V38.181H51.8637V38.2398L50.1059 38.4456C50.3685 39.0256 50.7389 39.7017 51.217 40.4738C51.6952 41.2459 52.1224 41.873 52.4986 42.3551C52.9102 41.9004 53.3961 41.2635 53.9566 40.4444C54.5171 39.6253 54.9345 38.959 55.2088 38.4456L53.4863 38.2398V38.181H56.9078V38.2516L55.8966 38.4456C55.6654 38.7199 55.442 39.0021 55.2264 39.2921C55.0109 39.5822 54.7326 39.9702 54.3916 40.4562C54.0507 40.9422 53.7822 41.3321 53.5862 41.6261C53.3903 41.9161 53.0963 42.3609 52.7044 42.9606C52.673 43.4427 52.6574 43.9796 52.6574 44.5714C52.6574 45.3788 52.7181 46.0294 52.8396 46.5232L54.2976 46.729V46.7877H49.8414V46.729L51.2699 46.5232C51.3326 46.2763 51.3816 45.9392 51.4169 45.512C51.4561 45.0848 51.4757 44.6831 51.4757 44.3069C51.4757 44.0247 51.4639 43.5837 51.4404 42.9841C51.2131 42.5687 50.9231 42.0768 50.5703 41.5085C50.2215 40.9363 49.861 40.3778 49.4886 39.833C49.1163 39.2843 48.7792 38.8218 48.4775 38.4456Z" fill="#BA9B6F"/>
<path d="M40.8819 43.2839V41.4673C40.8819 41.0009 40.8663 40.4679 40.8349 39.8683C40.8036 39.2647 40.7644 38.7905 40.7173 38.4456L39.3064 38.2398V38.181H43.1688C43.9017 38.181 44.4857 38.328 44.9208 38.6219C45.3597 38.912 45.6635 39.2451 45.832 39.6214C46.0005 39.9937 46.0848 40.3151 46.0848 40.5855C46.0848 40.9578 46.0005 41.291 45.832 41.5849C45.6635 41.8749 45.442 42.1062 45.1677 42.2786C44.8972 42.4511 44.6209 42.553 44.3387 42.5843V42.6078C44.6053 42.7137 44.8267 42.8548 45.0031 43.0311C45.1402 43.1683 45.297 43.3623 45.4734 43.6131C45.6497 43.8601 45.8829 44.1991 46.173 44.6302C46.463 45.0613 46.6962 45.3984 46.8725 45.6414C47.0489 45.8844 47.2116 46.0823 47.3605 46.2351C47.6897 46.5644 48.015 46.729 48.3364 46.729V46.7877H47.3135C46.7413 46.7877 46.2866 46.6153 45.9496 46.2704C45.8163 46.1372 45.683 45.9804 45.5498 45.8001C45.4205 45.6159 45.2127 45.3161 44.9266 44.9006C44.6444 44.4852 44.4054 44.1422 44.2094 43.8718C44.0174 43.6014 43.8645 43.4093 43.7509 43.2957C43.5823 43.1272 43.4275 43.0155 43.2864 42.9606C43.1492 42.9018 42.9454 42.8724 42.675 42.8724C42.4281 42.8724 42.2361 42.8861 42.0989 42.9135C42.0754 43.1252 42.0636 43.3603 42.0636 43.619V44.7066C42.0636 45.1652 42.1126 45.7707 42.2106 46.5232L43.6744 46.729V46.7877H39.3064V46.729L40.6879 46.5232C40.7467 46.1274 40.7938 45.5708 40.829 44.8536C40.8643 44.1364 40.8819 43.6131 40.8819 43.2839ZM42.0518 40.5973V41.5614C42.0518 41.9024 42.0636 42.2198 42.0871 42.5138C42.24 42.5373 42.4614 42.5491 42.7514 42.5491C43.2531 42.5491 43.6568 42.4628 43.9625 42.2904C44.2721 42.1179 44.4916 41.8945 44.6209 41.6202C44.7542 41.3419 44.8208 41.0382 44.8208 40.709C44.8208 40.3837 44.7561 40.0838 44.6268 39.8095C44.5014 39.5351 44.3368 39.3039 44.133 39.1158C43.9331 38.9237 43.7077 38.7768 43.4569 38.6749C43.21 38.569 42.967 38.5161 42.7279 38.5161C42.5006 38.5161 42.3223 38.5318 42.1929 38.5632C42.1577 38.7905 42.1244 39.1158 42.093 39.5391C42.0656 39.9623 42.0518 40.3151 42.0518 40.5973ZM44.1683 43.5132L45.444 45.3651C45.7497 45.8001 46.0221 46.1117 46.2611 46.2998C46.5002 46.484 46.7824 46.5781 47.1077 46.582V46.5232C46.7981 46.4331 46.4003 46.0352 45.9143 45.3298L44.8914 43.8601C44.6719 43.5387 44.4661 43.2957 44.2741 43.1311C44.082 42.9665 43.8469 42.8567 43.5686 42.8019L43.5451 42.8489C43.7646 42.99 43.9723 43.2114 44.1683 43.5132ZM41.0289 38.4103V46.5585H41.4522V38.4103H41.0289ZM42.6397 38.3104V38.3692C43.1767 38.3809 43.6254 38.5122 43.986 38.763C44.3505 39.01 44.615 39.3137 44.7797 39.6743C44.9443 40.0348 45.0266 40.3915 45.0266 40.7442C45.0266 41.5281 44.6856 42.0944 44.0036 42.4432L44.0389 42.4668C44.4387 42.3649 44.7679 42.1473 45.0266 41.8142C45.2892 41.4811 45.4205 41.0833 45.4205 40.6208C45.4205 40.2602 45.3499 39.9349 45.2088 39.6449C45.0677 39.3509 44.8757 39.106 44.6327 38.91C44.3936 38.7141 44.1251 38.5651 43.8273 38.4632C43.5294 38.3613 43.2296 38.3104 42.9278 38.3104H42.6397Z" fill="#BA9B6F"/>
<path d="M34.3563 46.6408V46.7172C34.8188 46.6898 35.2186 46.6153 35.5556 46.4938C35.8927 46.3684 36.1709 46.1959 36.3904 45.9765C36.6138 45.7531 36.7804 45.4748 36.8901 45.1417C36.9999 44.8085 37.0547 44.4225 37.0547 43.9835V38.3985H36.6432V43.9718C36.6432 44.7556 36.4629 45.3749 36.1024 45.8295C35.7418 46.2841 35.1598 46.5546 34.3563 46.6408ZM33.5862 46.7172V46.6408C33.0336 46.6094 32.5495 46.4997 32.1341 46.3116C31.7226 46.1195 31.3992 45.8373 31.1641 45.465C30.9328 45.0887 30.8172 44.6302 30.8172 44.0893V38.3985H30.4057V44.2951C30.4057 45.0202 30.6585 45.5943 31.1641 46.0176C31.6736 46.437 32.4809 46.6702 33.5862 46.7172ZM30.2352 44.2951V41.0205C30.2352 40.2916 30.1882 39.4293 30.0941 38.4338L28.8654 38.2398V38.181H33.1511V38.2398L31.5991 38.4338C31.5599 38.7082 31.5286 39.0374 31.505 39.4215C31.4815 39.8056 31.46 40.2151 31.4404 40.6502C31.4247 41.0852 31.4169 41.434 31.4169 41.6966V44.1128C31.4169 44.689 31.5325 45.1534 31.7637 45.5061C31.9989 45.855 32.3065 46.1019 32.6867 46.2469C33.0708 46.3919 33.4941 46.4644 33.9565 46.4644C34.7443 46.4644 35.3616 46.2645 35.8084 45.8648C36.2591 45.465 36.4845 44.8183 36.4845 43.9247V41.4086C36.4845 40.9618 36.4688 40.4346 36.4374 39.8271C36.4061 39.2157 36.3669 38.7513 36.3199 38.4338L34.7737 38.2398V38.181H39.0359V38.2398L37.8366 38.4338C37.7818 38.6886 37.7386 39.1138 37.7073 39.7095C37.6799 40.3014 37.6661 40.7991 37.6661 41.2028V44.0541C37.6661 44.4969 37.6132 44.8732 37.5074 45.1828C37.4016 45.4924 37.237 45.7589 37.0136 45.9823C36.8607 46.1352 36.7 46.2645 36.5315 46.3703C36.363 46.4762 36.1494 46.5683 35.8907 46.6467C35.632 46.725 35.3499 46.7819 35.0441 46.8171C34.7384 46.8524 34.3602 46.8701 33.9095 46.8701C33.1727 46.8701 32.5319 46.7877 31.9871 46.6231C31.4423 46.4585 31.0132 46.1842 30.6996 45.8001C30.39 45.416 30.2352 44.9143 30.2352 44.2951Z" fill="#BA9B6F"/>
<path d="M19.4944 38.3809L26.1552 46.5585H26.6314L19.9883 38.3809H19.4944ZM17.8719 38.181H22.7925V38.2398L20.9171 38.4338C21.1288 38.763 21.3247 39.057 21.505 39.3157C21.6892 39.5743 21.8891 39.8408 22.1047 40.1152C22.3242 40.3856 22.5632 40.6717 22.8219 40.9735C23.0806 41.2753 23.3471 41.5849 23.6214 41.9024C23.9271 41.5888 24.2799 41.2047 24.6796 40.7501C25.0833 40.2916 25.4419 39.8624 25.7555 39.4626C26.069 39.0629 26.314 38.7199 26.4903 38.4338L24.6973 38.2398V38.181H28.6303V38.2398L27.2487 38.4221C27.0018 38.6494 26.7196 38.9394 26.4022 39.2921C26.0886 39.641 25.7555 40.029 25.4027 40.4562C25.05 40.8794 24.7443 41.2596 24.4856 41.5967C24.227 41.9298 24.0526 42.1708 23.9624 42.3198C24.1976 42.6333 24.5052 43.0311 24.8854 43.5132C25.2656 43.9913 25.6085 44.4146 25.9142 44.783C26.2199 45.1475 26.5119 45.4846 26.7902 45.7942C27.0684 46.0999 27.3134 46.3468 27.525 46.535L28.6185 46.729V46.7877H23.839V46.729L25.7084 46.5232C25.3871 45.9784 24.9638 45.3788 24.4386 44.7243C23.9173 44.0697 23.4098 43.474 22.916 42.9371C22.5162 43.3486 22.1262 43.7758 21.7461 44.2187C21.3659 44.6615 21.019 45.0868 20.7055 45.4944C20.392 45.8981 20.1411 46.241 19.953 46.5232L21.7461 46.729V46.7877H17.8425V46.729L19.1946 46.5232C19.7551 45.9745 20.3606 45.3082 21.0112 44.5244C21.6657 43.7366 22.1909 43.0664 22.5867 42.5138C22.2066 42.0082 21.8166 41.5065 21.4168 41.0088C21.021 40.5071 20.6173 40.0152 20.2058 39.5332C19.7943 39.0511 19.4533 38.6847 19.1829 38.4338L17.8719 38.2398V38.181Z" fill="#BA9B6F"/>
<path d="M13.0276 46.6408V46.7172C13.4901 46.6898 13.8899 46.6153 14.2269 46.4938C14.564 46.3684 14.8423 46.1959 15.0617 45.9765C15.2851 45.7531 15.4517 45.4748 15.5614 45.1417C15.6712 44.8085 15.7261 44.4225 15.7261 43.9835V38.3985H15.3145V43.9718C15.3145 44.7556 15.1342 45.3749 14.7737 45.8295C14.4131 46.2841 13.8311 46.5546 13.0276 46.6408ZM12.2575 46.7172V46.6408C11.7049 46.6094 11.2209 46.4997 10.8054 46.3116C10.3939 46.1195 10.0706 45.8373 9.8354 45.465C9.60416 45.0887 9.48854 44.6302 9.48854 44.0893V38.3985H9.07702V44.2951C9.07702 45.0202 9.32981 45.5943 9.8354 46.0176C10.3449 46.437 11.1523 46.6702 12.2575 46.7172ZM8.90653 44.2951V41.0205C8.90653 40.2916 8.8595 39.4293 8.76543 38.4338L7.53674 38.2398V38.181H11.8225V38.2398L10.2704 38.4338C10.2312 38.7082 10.1999 39.0374 10.1764 39.4215C10.1529 39.8056 10.1313 40.2151 10.1117 40.6502C10.096 41.0852 10.0882 41.434 10.0882 41.6966V44.1128C10.0882 44.689 10.2038 45.1534 10.435 45.5061C10.6702 45.855 10.9779 46.1019 11.358 46.2469C11.7421 46.3919 12.1654 46.4644 12.6279 46.4644C13.4156 46.4644 14.0329 46.2645 14.4797 45.8648C14.9304 45.465 15.1558 44.8183 15.1558 43.9247V41.4086C15.1558 40.9618 15.1401 40.4346 15.1088 39.8271C15.0774 39.2157 15.0382 38.7513 14.9912 38.4338L13.445 38.2398V38.181H17.7073V38.2398L16.508 38.4338C16.4531 38.6886 16.41 39.1138 16.3786 39.7095C16.3512 40.3014 16.3375 40.7991 16.3375 41.2028V44.0541C16.3375 44.4969 16.2846 44.8732 16.1787 45.1828C16.0729 45.4924 15.9083 45.7589 15.6849 45.9823C15.5321 46.1352 15.3714 46.2645 15.2028 46.3703C15.0343 46.4762 14.8207 46.5683 14.562 46.6467C14.3034 46.725 14.0212 46.7819 13.7155 46.8171C13.4098 46.8524 13.0316 46.8701 12.5808 46.8701C11.844 46.8701 11.2032 46.7877 10.6584 46.6231C10.1137 46.4585 9.6845 46.1842 9.37096 45.8001C9.06134 45.416 8.90653 44.9143 8.90653 44.2951Z" fill="#BA9B6F"/>
<path d="M1.79307 38.3985V46.5585H2.20459V38.3985H1.79307ZM0.0117578 38.2398V38.181H4.45621V38.2398L2.99824 38.4456C2.94729 38.8258 2.90418 39.3392 2.86891 39.9859C2.83363 40.6286 2.816 41.191 2.816 41.6731V44.201C2.816 44.8085 2.84735 45.4415 2.91006 46.0999C3.58025 46.3116 4.27201 46.4174 4.98531 46.4174C5.33021 46.4174 5.64767 46.3978 5.9377 46.3586C6.22772 46.3194 6.43152 46.2822 6.5491 46.2469L7.16051 44.6419H7.24869L6.97238 46.7877H0V46.729L1.40506 46.5232C1.45209 46.3351 1.49128 46 1.52264 45.5179C1.55791 45.0358 1.58535 44.5381 1.60494 44.0247C1.62454 43.5112 1.63434 43.1487 1.63434 42.9371V41.4556C1.63434 41.1303 1.6265 40.758 1.61082 40.3386C1.59514 39.9153 1.57555 39.5449 1.55203 39.2275C1.53243 38.91 1.505 38.6494 1.46973 38.4456L0.0117578 38.2398Z" fill="#BA9B6F"/>
</svg>
