<?xml version="1.0" encoding="utf-8"?>
<!-- Generator: Adobe Illustrator 27.0.1, SVG Export Plug-In . SVG Version: 6.00 Build 0)  -->
<svg version="1.1" id="Layer_1" xmlns="http://www.w3.org/2000/svg" xmlns:xlink="http://www.w3.org/1999/xlink" x="0px" y="0px"
	 viewBox="0 0 48 48" style="enable-background:new 0 0 48 48;" xml:space="preserve">
<style type="text/css">
	.st0{fill:#263C94;}
	.st1{fill:#FDCD08;}
</style>
<g>
	<path class="st0" d="M48,24c0,2.8-0.5,5.6-1.4,8.1c-2.2,6.1-6.8,11.1-12.8,13.8c-3,1.4-6.3,2.1-9.8,2.1s-6.8-0.8-9.8-2.1
		C8.3,43.2,3.6,38.3,1.4,32.1C0.5,29.6,0,26.8,0,24c0-2.8,0.5-5.6,1.4-8.1C3.6,9.7,8.3,4.8,14.2,2.1C17.2,0.8,20.5,0,24,0
		s6.8,0.8,9.8,2.1c5.9,2.7,10.5,7.6,12.8,13.8C47.5,18.4,48,21.2,48,24z"/>
	<polygon class="st1" points="24,7 24.6,8.6 26.3,8.6 24.9,9.7 25.4,11.4 24,10.4 22.6,11.4 23.1,9.7 21.7,8.6 23.4,8.6 	"/>
	<polygon class="st1" points="9.5,21.6 10.1,23.3 11.8,23.3 10.4,24.3 10.9,26 9.5,25 8.1,26 8.6,24.3 7.2,23.3 8.9,23.3 	"/>
	<polygon class="st1" points="11.4,14.2 12,15.9 13.7,15.9 12.3,17 12.8,18.6 11.4,17.6 10,18.6 10.5,17 9.1,15.9 10.8,15.9 	"/>
	<polygon class="st1" points="16.7,9 17.3,10.7 19,10.7 17.6,11.7 18.1,13.4 16.7,12.4 15.3,13.4 15.8,11.7 14.4,10.7 16.2,10.7 	
		"/>
	<polygon class="st1" points="36.6,14.2 36,15.9 34.3,15.9 35.7,17 35.2,18.6 36.6,17.6 38,18.6 37.5,17 38.9,15.9 37.2,15.9 	"/>
	<polygon class="st1" points="11.4,28.9 12,30.5 13.7,30.6 12.3,31.6 12.8,33.3 11.4,32.3 10,33.3 10.5,31.6 9.1,30.6 10.8,30.5 	
		"/>
	<polygon class="st1" points="36.6,28.9 36,30.5 34.3,30.6 35.7,31.6 35.2,33.3 36.6,32.3 38,33.3 37.5,31.6 38.9,30.6 37.2,30.5 	
		"/>
	<polygon class="st1" points="31.3,9 30.7,10.7 29,10.7 30.4,11.7 29.8,13.4 31.3,12.4 32.7,13.4 32.2,11.7 33.6,10.7 31.8,10.7 	
		"/>
	<polygon class="st1" points="16.7,34.1 17.3,35.8 19,35.8 17.6,36.8 18.1,38.5 16.7,37.5 15.3,38.5 15.8,36.8 14.4,35.8 16.2,35.8 
			"/>
	<polygon class="st1" points="31.3,34.1 30.7,35.8 29,35.8 30.4,36.8 29.8,38.5 31.3,37.5 32.7,38.5 32.2,36.8 33.6,35.8 31.8,35.8 
			"/>
	<polygon class="st1" points="38.6,21.6 39.2,23.3 40.9,23.3 39.5,24.3 40,26 38.6,25 37.2,26 37.7,24.3 36.3,23.3 38,23.3 	"/>
	<polygon class="st1" points="24,36.1 24.6,37.8 26.3,37.8 24.9,38.8 25.4,40.5 24,39.5 22.6,40.5 23.1,38.8 21.7,37.8 23.4,37.8 	
		"/>
</g>
</svg>
